<svg version="1.1" id="Layer_1" xmlns="http://www.w3.org/2000/svg" xmlns:xlink="http://www.w3.org/1999/xlink" x="0px" y="0px"
	 width="100%" viewBox="0 0 496 496" enable-background="new 0 0 496 496" xml:space="preserve">
<path fill="#000000" opacity="1.000000" stroke="none" 
	d="
M173.247726,250.238495 
	C158.856384,244.873611 150.442398,232.894394 150.889267,218.882065 
	C151.303452,205.894302 160.286835,194.191940 173.030838,190.420746 
	C183.416931,187.347321 193.111282,188.796768 201.771164,195.619278 
	C202.686508,196.340424 203.600967,197.064072 204.543289,197.748749 
	C204.799805,197.935150 205.156479,197.983734 205.866562,198.239288 
	C210.844299,194.149582 216.250107,190.496460 223.158554,189.452957 
	C232.409927,188.055588 240.732971,189.839462 248.069366,195.563782 
	C250.445053,197.417419 252.076935,197.550446 254.574783,195.698822 
	C266.845795,186.602432 281.254364,186.542603 293.442657,195.650162 
	C296.142670,197.667740 297.698792,197.458710 300.268127,195.537308 
	C310.858917,187.617294 322.420135,186.733627 334.136017,192.526642 
	C345.571869,198.181198 350.423706,208.378220 350.984741,220.624847 
	C351.693512,236.095901 337.496216,250.706085 322.044037,251.413437 
	C312.499146,251.850357 304.346283,249.094467 297.577728,242.773560 
	C295.380798,242.751526 294.420654,244.353256 293.107056,245.272736 
	C280.824280,253.870377 266.548431,253.748154 254.520477,244.809052 
	C252.780853,243.516159 251.446136,241.815002 249.052155,244.072632 
	C238.280106,254.231216 217.400620,254.152908 207.148621,243.055725 
	C206.723892,242.595993 206.092056,242.327560 205.258835,241.771057 
	C196.462906,251.076538 185.689560,253.153900 173.247726,250.238495 
M156.394836,210.162872 
	C152.155121,222.528778 157.631195,238.029648 168.669403,244.571045 
	C170.450394,245.626511 172.674774,247.464813 174.633514,245.868027 
	C178.419510,242.781631 181.391785,244.292343 184.385056,246.799255 
	C185.269440,247.539917 186.072922,247.646927 187.119888,247.417511 
	C192.537323,246.230209 197.942749,244.840195 201.835114,240.600388 
	C204.423111,237.781403 206.012405,236.994080 209.399780,240.092270 
	C211.926865,242.403610 216.661194,245.172668 219.744293,242.048447 
	C222.863403,238.887741 225.108170,238.908463 228.374496,240.668106 
	C230.862396,242.008347 233.534622,243.048660 235.887878,244.585297 
	C238.518539,246.303040 240.871613,246.195114 243.254990,244.400253 
	C244.847366,243.201050 246.551727,242.059647 247.849152,240.579575 
	C250.163086,237.939957 251.964020,237.406189 254.702759,240.327408 
	C256.683929,242.440567 259.076660,244.837723 262.517487,244.376266 
	C263.418701,242.917145 262.466217,241.846802 262.486542,240.718292 
	C262.591217,234.907257 266.319824,232.743271 271.609253,235.302322 
	C274.246246,236.578094 275.342194,238.924942 276.648529,241.262878 
	C279.884430,247.054337 282.591553,247.766953 288.397919,244.495438 
	C289.555115,243.843460 290.593445,242.983688 291.732178,242.295135 
	C293.998901,240.924576 294.415588,239.404663 292.979645,236.954514 
	C286.428040,225.775421 286.467682,214.526917 293.165314,203.390457 
	C294.268341,201.556366 294.446533,199.986542 292.617554,198.584427 
	C286.321320,193.757675 279.449310,190.775620 271.301208,192.232620 
	C263.808655,193.572403 256.790222,195.966919 251.668839,202.138855 
	C235.911255,188.970383 220.579361,188.340042 205.347336,202.863815 
	C199.500488,197.009399 192.943192,193.651505 184.569061,195.784088 
	C183.551758,196.043152 182.211243,195.607285 181.178818,195.142151 
	C172.787079,191.361481 164.698303,197.342834 160.663589,202.505127 
	C159.044571,204.576614 158.043488,207.131042 156.394836,210.162872 
M345.469818,210.363602 
	C336.743286,190.907379 317.102386,187.960861 302.874420,197.688339 
	C299.966492,199.676468 299.590271,201.443771 301.319519,204.653259 
	C306.436005,214.149658 306.842194,223.999725 302.213440,233.883057 
	C299.036377,240.666702 298.983124,240.705002 305.857422,244.109085 
	C309.233704,245.780991 312.771576,248.348572 316.602295,246.415375 
	C320.527374,244.434570 324.468353,244.106415 328.607178,244.443161 
	C330.477814,244.595352 332.052094,244.695068 333.662964,243.256119 
	C343.320190,234.629440 346.962158,223.824799 345.469818,210.363602 
M291.418976,223.909622 
	C292.666016,228.183487 292.818817,232.993866 296.990326,236.014236 
	C304.330414,226.447586 304.142883,211.969299 296.811920,204.821854 
	C292.668396,208.818130 291.219666,213.665573 291.418976,223.909622 
z"/>
<path fill="#000000" opacity="1.000000" stroke="none" 
	d="
M108.526596,290.727844 
	C108.353600,297.701202 108.082291,304.371216 108.319969,311.023041 
	C108.490028,315.782410 106.073898,316.512878 102.129295,316.419312 
	C98.470650,316.332520 95.603058,316.277039 95.672432,311.276581 
	C95.868889,297.117401 95.733360,282.953735 95.769035,268.791931 
	C95.773499,267.017822 95.376434,264.801544 97.586884,264.070374 
	C99.665077,263.382935 100.922066,265.209961 102.175003,266.478912 
	C110.238663,274.645599 118.259628,282.854492 126.165924,290.918274 
	C128.472275,289.758911 127.745430,288.252319 127.768517,287.089966 
	C127.871056,281.926819 127.802673,276.760620 127.860275,271.596191 
	C127.930473,265.302887 132.729446,262.341217 138.478287,264.937073 
	C140.212845,265.720276 140.291748,267.188538 140.293610,268.684845 
	C140.312012,283.512970 140.308868,298.341156 140.285156,313.169281 
	C140.282745,314.674103 140.223801,316.346436 138.467987,316.909790 
	C136.769974,317.454590 135.650726,316.157501 134.617035,315.108795 
	C127.366249,307.752777 120.193138,300.319489 112.883331,293.022980 
	C111.746964,291.888733 111.066383,289.612061 108.526596,290.727844 
z"/>
<path fill="#000000" opacity="1.000000" stroke="none" 
	d="
M396.050171,315.815552 
	C395.141846,314.822052 394.547119,314.040070 393.715210,312.946198 
	C384.090973,318.979218 374.691254,319.534546 366.596588,310.308533 
	C361.099945,304.043640 360.620300,294.210175 364.961884,286.953979 
	C369.869293,278.752106 376.592987,276.896027 391.248016,279.903046 
	C392.579498,276.626160 391.965027,273.126129 391.946930,269.765015 
	C391.923737,265.460571 394.097137,264.547913 397.918579,264.567169 
	C401.626312,264.585846 403.999420,265.210754 403.979462,269.622894 
	C403.916199,283.600372 404.019257,297.578674 404.060974,311.556641 
	C404.078735,317.501190 400.038605,316.446747 396.050171,315.815552 
M389.756714,304.309052 
	C395.873566,297.805786 391.307007,289.551514 385.000275,288.420929 
	C380.601349,287.632294 377.112701,289.256348 374.947052,293.160492 
	C372.756439,297.109528 373.453278,300.885071 376.484039,304.121857 
	C379.619476,307.470398 384.217346,307.641205 389.756714,304.309052 
z"/>
<path fill="#000000" opacity="1.000000" stroke="none" 
	d="
M278.025330,280.085205 
	C275.250244,284.444122 273.835388,288.726837 274.954529,293.615967 
	C277.605011,305.195038 289.016388,309.797607 298.950867,303.247772 
	C302.537811,300.882874 309.139008,302.594940 311.093964,306.361908 
	C312.192230,308.478088 310.483643,309.441895 309.350555,310.501434 
	C301.242737,318.083130 291.559570,318.855255 281.372162,316.510223 
	C271.499115,314.237518 265.595673,307.664185 262.993744,298.084656 
	C259.807587,286.354156 264.425049,273.319855 273.586304,267.631805 
	C283.840820,261.264923 299.689636,261.849182 307.825836,269.128876 
	C309.410919,270.547058 312.794830,271.705231 310.695435,274.985352 
	C308.426727,278.530029 302.885925,280.277283 300.089142,278.550201 
	C291.731354,273.389160 285.213684,273.762085 278.025330,280.085205 
z"/>
<path fill="#000000" opacity="1.000000" stroke="none" 
	d="
M316.934448,291.374329 
	C322.210602,279.284637 334.330322,274.624237 345.938843,279.876831 
	C355.518738,284.211517 359.660065,295.521301 355.359100,305.603058 
	C351.109192,315.565002 338.620026,320.023926 327.897858,315.672424 
	C320.146027,312.526459 313.527374,302.834534 316.934448,291.374329 
M328.877899,292.512207 
	C326.291016,299.702301 328.708557,305.653259 334.631958,306.676300 
	C339.445312,307.507629 343.050690,305.442596 344.833557,300.833130 
	C346.401764,296.778656 344.783325,291.681458 341.225891,289.471008 
	C337.472839,287.139008 333.099915,288.019043 328.877899,292.512207 
z"/>
<path fill="#000000" opacity="1.000000" stroke="none" 
	d="
M147.654419,299.755615 
	C145.853333,281.839203 162.562363,273.675690 175.029922,279.855438 
	C180.998657,282.813934 184.823685,289.558716 184.600540,296.162689 
	C184.503586,299.032593 182.893570,299.413452 180.698990,299.414185 
	C174.877411,299.416168 169.055542,299.382751 163.234436,299.435577 
	C161.821854,299.448395 160.008347,299.022644 159.502441,301.015472 
	C159.085983,302.655914 160.058060,303.939880 161.262421,304.892456 
	C165.169632,307.982788 169.303207,307.381104 173.461060,305.452698 
	C177.511932,303.573975 180.244370,304.648865 182.051605,308.684326 
	C182.958344,310.708954 181.964844,311.766846 180.494354,312.819763 
	C167.043716,322.450775 149.042679,315.786041 147.654419,299.755615 
M164.348206,291.636261 
	C166.687180,291.382019 169.244827,292.486877 171.572586,290.442993 
	C169.280029,286.603882 166.079834,286.527130 162.797256,288.371735 
	C160.175354,289.845062 161.004288,291.110291 164.348206,291.636261 
z"/>
<path fill="#000000" opacity="1.000000" stroke="none" 
	d="
M427.371948,299.411346 
	C425.389893,299.642883 423.251129,298.729553 422.622101,300.875610 
	C422.023499,302.917786 423.569550,304.386932 425.096008,305.390045 
	C428.996857,307.953461 433.251251,307.621033 436.907227,305.294983 
	C441.584747,302.319031 443.340393,305.700470 445.067963,308.583801 
	C447.303040,312.314209 443.467529,313.123291 441.448578,314.245087 
	C433.187958,318.834961 423.917297,318.209290 417.521393,312.933960 
	C411.239746,307.752899 408.991608,298.745361 411.834534,290.148651 
	C414.545380,281.951324 423.263672,276.646240 431.911285,277.932037 
	C441.335693,279.333282 447.757874,286.343781 448.087128,295.462372 
	C448.186584,298.217133 447.039429,299.450043 444.290985,299.425385 
	C438.798157,299.376099 433.304626,299.410492 427.371948,299.411346 
M424.907562,291.551788 
	C428.270386,291.581879 431.674866,292.151642 435.312927,291.106079 
	C433.963806,287.704712 431.522491,287.041443 428.806091,287.418304 
	C426.657227,287.716461 424.141571,288.045776 424.907562,291.551788 
z"/>
<path fill="#000000" opacity="1.000000" stroke="none" 
	d="
M192.969162,285.972717 
	C191.499969,283.811096 189.658905,282.239838 189.363541,279.689178 
	C198.908417,275.775177 204.065231,281.056183 208.455093,289.516113 
	C213.169388,281.574829 218.021317,275.454987 228.037064,279.785675 
	C226.026566,284.559143 222.545074,288.356293 219.427307,292.272217 
	C216.858826,295.498260 216.464600,297.832581 219.216263,301.327637 
	C222.636948,305.672424 226.674606,309.749573 228.755981,315.307373 
	C218.368454,319.460754 213.139374,313.598938 208.594498,304.180023 
	C204.105804,313.257935 199.017517,319.551483 188.746231,315.466064 
	C188.695557,311.645172 191.942734,309.583801 193.885925,306.891357 
	C201.181732,296.782501 201.252686,296.833588 193.802551,287.045410 
	C193.600952,286.780518 193.392426,286.520935 192.969162,285.972717 
z"/>
<path fill="#000000" opacity="1.000000" stroke="none" 
	d="
M249.999207,306.975800 
	C251.907410,308.096649 254.209137,306.978607 255.369751,308.829346 
	C256.526947,310.674591 257.405182,312.850647 256.718933,314.954102 
	C256.073608,316.932190 253.886780,317.023682 252.074463,317.224121 
	C242.442383,318.289246 236.815186,313.285522 236.704773,303.562225 
	C236.665070,300.065521 236.667557,296.567719 236.702927,293.070953 
	C236.725342,290.855804 236.451019,289.158386 234.267075,287.590088 
	C231.406052,285.535553 231.606430,281.136200 233.641205,279.702667 
	C237.035599,277.311188 236.855042,274.538177 236.647339,271.497772 
	C236.345184,267.075348 238.779083,266.076874 242.470322,266.111603 
	C246.011459,266.144958 248.715195,266.761871 248.377548,271.349060 
	C248.103149,275.077087 247.290558,279.294617 253.631012,278.981354 
	C256.154327,278.856659 256.113708,281.635437 256.180023,283.647308 
	C256.254089,285.894897 255.514084,287.938263 253.041901,287.901764 
	C248.338135,287.832275 247.930801,290.652313 248.354477,294.137085 
	C248.864929,298.335602 246.991852,302.783447 249.999207,306.975800 
z"/>
<path fill="#000000" opacity="1.000000" stroke="none" 
	d="
M229.670059,220.517059 
	C229.054611,225.131546 229.405121,229.476883 227.347900,233.470963 
	C224.445190,231.110275 226.100891,210.870834 229.936752,205.020340 
	C232.071808,210.524460 229.641800,215.332382 229.670059,220.517059 
z"/>
<path fill="#000000" opacity="1.000000" stroke="none" 
	d="
M180.984009,206.786499 
	C182.676743,204.881760 183.929123,205.921402 183.747818,207.369781 
	C182.686951,215.845490 182.586716,224.452606 180.418488,232.777557 
	C180.365402,232.981400 179.865143,233.068756 178.401596,233.779633 
	C177.552963,224.395645 180.069717,215.811401 180.984009,206.786499 
z"/>
<path fill="#000000" opacity="1.000000" stroke="none" 
	d="
M173.229034,212.702271 
	C171.438034,218.795853 171.799927,224.627701 173.418976,230.300690 
	C170.794388,231.687881 169.819489,230.066788 169.197205,228.633682 
	C167.075500,223.747543 167.466049,218.761185 169.360275,213.922470 
	C169.939102,212.443878 171.084641,210.870041 173.229034,212.702271 
z"/>
<path fill="#000000" opacity="1.000000" stroke="none" 
	d="
M189.167969,213.296844 
	C189.478256,211.037094 190.710220,211.508087 191.667206,212.219757 
	C195.981583,215.428253 194.660278,227.398315 189.165848,230.350204 
	C189.515289,224.575806 190.756622,219.069077 189.167969,213.296844 
z"/>
<path fill="#000000" opacity="1.000000" stroke="none" 
	d="
M239.438705,216.671021 
	C243.022675,221.354034 240.433411,226.391312 232.818512,228.028168 
	C236.506409,223.281860 239.721680,218.840591 233.491653,214.327896 
	C237.055832,212.889328 237.792343,215.339981 239.438705,216.671021 
z"/>
<path fill="#000000" opacity="1.000000" stroke="none" 
	d="
M216.078583,218.044724 
	C218.250198,216.385788 219.441483,213.901031 223.375824,213.381683 
	C221.161438,218.282944 215.555496,222.640320 223.864365,227.554153 
	C216.677292,226.993759 213.786423,222.457489 216.078583,218.044724 
z"/>
<path fill="#000000" opacity="1.000000" stroke="none" 
	d="
M268.909729,221.058411 
	C266.683044,222.736923 265.787781,225.756454 261.443298,225.680786 
	C264.460266,220.977783 269.100189,216.666489 261.865021,211.634445 
	C268.717438,213.284363 270.965698,216.864532 268.909729,221.058411 
z"/>
<path fill="#000000" opacity="1.000000" stroke="none" 
	d="
M282.576935,228.259155 
	C278.723846,227.962982 275.081787,229.136475 271.915436,226.512039 
	C276.307770,224.105118 280.808075,224.712708 285.300659,225.409027 
	C285.732147,227.968445 284.288391,228.015839 282.576935,228.259155 
z"/>
<path fill="#000000" opacity="1.000000" stroke="none" 
	d="
M318.996338,229.820038 
	C317.130157,224.623825 312.535431,223.014679 307.324005,220.075882 
	C314.635956,217.694687 318.730316,213.067215 321.483154,205.221848 
	C323.993164,213.273560 328.304688,217.731598 335.186920,220.308411 
	C328.595337,222.741531 324.097290,226.954620 322.049774,233.204224 
	C319.865051,232.769882 319.753052,231.253082 318.996338,229.820038 
z"/>
</svg>